<?xml version="1.0" encoding="UTF-8" standalone="no"?>
<!-- Generator: Adobe Illustrator 15.0.0, SVG Export Plug-In . SVG Version: 6.00 Build 0)  -->

<svg
   xmlns:dc="http://purl.org/dc/elements/1.1/"
   xmlns:cc="http://creativecommons.org/ns#"
   xmlns:rdf="http://www.w3.org/1999/02/22-rdf-syntax-ns#"
   xmlns:svg="http://www.w3.org/2000/svg"
   xmlns="http://www.w3.org/2000/svg"
   xmlns:sodipodi="http://sodipodi.sourceforge.net/DTD/sodipodi-0.dtd"
   xmlns:inkscape="http://www.inkscape.org/namespaces/inkscape"
   version="1.1"
   id="Layer_1"
   x="0px"
   y="0px"
   width="167.56877"
   height="197.73749"
   viewBox="0 0 167.56877 197.73749"
   enable-background="new 0 0 141 72"
   xml:space="preserve"
   inkscape:version="0.92.3 (2405546, 2018-03-11)"
   sodipodi:docname="airrohr_connection_sds011_bme280.svg"
   inkscape:export-filename="C:\Projects\_IoT\FritzingModels\esp8266-nodemcu-v3\NodeMCUBreadboard.png"
   inkscape:export-xdpi="357.49503"
   inkscape:export-ydpi="357.49503"><metadata
   id="metadata4263"><rdf:RDF><cc:Work
       rdf:about=""><dc:format>image/svg+xml</dc:format><dc:type
         rdf:resource="http://purl.org/dc/dcmitype/StillImage" /><dc:title></dc:title></cc:Work></rdf:RDF></metadata><defs
   id="defs4261"><inkscape:path-effect
   effect="bspline"
   id="path-effect494"
   is_visible="true"
   weight="33.333333"
   steps="2"
   helper_size="0"
   apply_no_weight="true"
   apply_with_weight="true"
   only_selected="false" /><inkscape:path-effect
   effect="bspline"
   id="path-effect6741"
   is_visible="true"
   weight="33.333333"
   steps="2"
   helper_size="0"
   apply_no_weight="true"
   apply_with_weight="true"
   only_selected="false" /><inkscape:path-effect
   effect="bspline"
   id="path-effect6737"
   is_visible="true"
   weight="33.333333"
   steps="2"
   helper_size="0"
   apply_no_weight="true"
   apply_with_weight="true"
   only_selected="false" /><inkscape:path-effect
   effect="bspline"
   id="path-effect6733"
   is_visible="true"
   weight="33.333333"
   steps="2"
   helper_size="0"
   apply_no_weight="true"
   apply_with_weight="true"
   only_selected="false" /><inkscape:path-effect
   effect="bspline"
   id="path-effect6729"
   is_visible="true"
   weight="33.333333"
   steps="2"
   helper_size="0"
   apply_no_weight="true"
   apply_with_weight="true"
   only_selected="false" /><inkscape:path-effect
   effect="bspline"
   id="path-effect6741-2"
   is_visible="true"
   weight="33.333333"
   steps="2"
   helper_size="0"
   apply_no_weight="true"
   apply_with_weight="true"
   only_selected="false" />














































</defs><sodipodi:namedview
   pagecolor="#ffffff"
   bordercolor="#666666"
   borderopacity="1"
   objecttolerance="10"
   gridtolerance="10"
   guidetolerance="10"
   inkscape:pageopacity="0"
   inkscape:pageshadow="2"
   inkscape:window-width="1600"
   inkscape:window-height="838"
   id="namedview4259"
   showgrid="false"
   inkscape:zoom="3.6411913"
   inkscape:cx="65.383816"
   inkscape:cy="135.94452"
   inkscape:window-x="0"
   inkscape:window-y="1108"
   inkscape:window-maximized="1"
   inkscape:current-layer="Layer_1"
   fit-margin-top="0"
   fit-margin-left="0"
   fit-margin-right="0"
   fit-margin-bottom="0" /><g
   id="g3897"
   transform="translate(-15.773793,91.004988)">
































</g>
<text
   font-size="4"
   id="text4257"
   style="font-size:4px;font-family:OCRA;fill:#ffffff"
   x="54.309208"
   y="109.76919" />


<path
   inkscape:connector-curvature="0"
   style="fill:#1e2c5c"
   d="M 90.959707,188.02249 V 61.275485 c 0,-2.764 -2.266,-5.004 -5.063,-5.004 H 24.022708 c -2.795,0 -5.062,2.24 -5.062,5.004 V 188.02249 c 0,2.765 2.268,5.007 5.062,5.007 h 61.874999 c 2.796,0 5.062,-2.242 5.062,-5.007 z m -1.819,-125.218005 c 0,2.352 -1.924,4.259 -4.295,4.259 -2.369999,0 -4.292999,-1.905 -4.292999,-4.259 0,-2.355 1.922,-4.261 4.292999,-4.261 2.37,0 4.295,1.906 4.295,4.261 z m -68.585999,0 c 0,-2.355 1.92,-4.261 4.291,-4.261 2.373,0 4.299,1.905 4.299,4.261 0,2.352 -1.926,4.259 -4.299,4.259 -2.371,0 -4.291,-1.907 -4.291,-4.259 z m 0,124.017005 c 0,-2.354 1.92,-4.26 4.291,-4.26 2.373,0 4.299,1.905 4.299,4.26 0,2.353 -1.926,4.259 -4.299,4.259 -2.371,0 -4.291,-1.907 -4.291,-4.259 z m 59.998,0 c 0,-2.354 1.923,-4.26 4.292999,-4.26 2.37,0 4.294,1.905 4.294,4.26 0,2.353 -1.923,4.259 -4.294,4.259 -2.368999,0 -4.292999,-1.907 -4.292999,-4.259 z"
   id="path3899" /><rect
   style="fill:#454545"
   x="72.529488"
   y="-26.386709"
   width="3.7130001"
   height="7.428"
   id="rect3901"
   transform="rotate(90)" /><polygon
   style="fill:#454545"
   points="16.258,64.572 16.258,71.998 14.4,70.141 14.4,66.428 "
   id="polygon3903"
   transform="rotate(90,17.343611,73.615097)" /><polygon
   style="fill:#454545"
   points="21.829,66.428 21.829,70.141 19.97,71.998 19.97,64.572 "
   id="polygon3905"
   transform="rotate(90,17.343611,73.615097)" /><rect
   style="fill:#b68b2d"
   x="73.729485"
   y="-23.50971"
   width="1.312"
   height="1.668"
   id="rect3907"
   transform="rotate(90)" /><rect
   style="fill:#454545"
   x="79.729485"
   y="-26.386709"
   width="3.7130001"
   height="7.428"
   id="rect3909"
   transform="rotate(90)" /><polygon
   style="fill:#454545"
   points="23.458,64.572 23.458,71.998 21.6,70.141 21.6,66.428 "
   id="polygon3911"
   transform="rotate(90,17.343611,73.615097)" /><polygon
   style="fill:#454545"
   points="29.029,66.428 29.029,70.141 27.17,71.998 27.17,64.572 "
   id="polygon3913"
   transform="rotate(90,17.343611,73.615097)" /><rect
   style="fill:#b68b2d"
   x="80.929489"
   y="-23.50971"
   width="1.312"
   height="1.668"
   id="rect3915"
   transform="rotate(90)" /><rect
   style="fill:#454545"
   x="86.929489"
   y="-26.386709"
   width="3.7130001"
   height="7.428"
   id="rect3917"
   transform="rotate(90)" /><polygon
   style="fill:#454545"
   points="30.658,64.572 30.658,71.998 28.8,70.141 28.8,66.428 "
   id="polygon3919"
   transform="rotate(90,17.343611,73.615097)" /><polygon
   style="fill:#454545"
   points="36.229,66.428 36.229,70.141 34.37,71.998 34.37,64.572 "
   id="polygon3921"
   transform="rotate(90,17.343611,73.615097)" /><rect
   style="fill:#b68b2d"
   x="88.129486"
   y="-23.50971"
   width="1.312"
   height="1.668"
   id="rect3923"
   transform="rotate(90)" /><rect
   style="fill:#454545"
   x="94.129486"
   y="-26.386709"
   width="3.7130001"
   height="7.428"
   id="rect3925"
   transform="rotate(90)" /><polygon
   style="fill:#454545"
   points="37.858,64.572 37.858,71.998 36,70.141 36,66.428 "
   id="polygon3927"
   transform="rotate(90,17.343611,73.615097)" /><polygon
   style="fill:#454545"
   points="43.429,66.428 43.429,70.141 41.57,71.998 41.57,64.572 "
   id="polygon3929"
   transform="rotate(90,17.343611,73.615097)" /><rect
   style="fill:#b68b2d"
   x="95.330482"
   y="-23.50971"
   width="1.312"
   height="1.668"
   id="rect3931"
   transform="rotate(90)" /><rect
   style="fill:#454545"
   x="101.32948"
   y="-26.386709"
   width="3.7130001"
   height="7.428"
   id="rect3933"
   transform="rotate(90)" /><polygon
   style="fill:#454545"
   points="45.058,64.572 45.058,71.998 43.2,70.141 43.2,66.428 "
   id="polygon3935"
   transform="rotate(90,17.343611,73.615097)" /><polygon
   style="fill:#454545"
   points="50.629,66.428 50.629,70.141 48.77,71.998 48.77,64.572 "
   id="polygon3937"
   transform="rotate(90,17.343611,73.615097)" /><rect
   style="fill:#b68b2d"
   x="102.52949"
   y="-23.50971"
   width="1.312"
   height="1.668"
   id="rect3939"
   transform="rotate(90)" /><rect
   style="fill:#454545"
   x="108.52949"
   y="-26.386709"
   width="3.7130001"
   height="7.428"
   id="rect3941"
   transform="rotate(90)" /><polygon
   style="fill:#454545"
   points="52.258,64.572 52.258,71.998 50.4,70.141 50.4,66.428 "
   id="polygon3943"
   transform="rotate(90,17.343611,73.615097)" /><polygon
   style="fill:#454545"
   points="57.829,66.428 57.829,70.141 55.97,71.998 55.97,64.572 "
   id="polygon3945"
   transform="rotate(90,17.343611,73.615097)" /><rect
   style="fill:#b68b2d"
   x="109.72948"
   y="-23.50971"
   width="1.312"
   height="1.668"
   id="rect3947"
   transform="rotate(90)" /><rect
   style="fill:#454545"
   x="115.72948"
   y="-26.386709"
   width="3.7130001"
   height="7.428"
   id="rect3949"
   transform="rotate(90)" /><polygon
   style="fill:#454545"
   points="59.458,64.572 59.458,71.998 57.601,70.141 57.601,66.428 "
   id="polygon3951"
   transform="rotate(90,17.343611,73.615097)" /><polygon
   style="fill:#454545"
   points="65.029,66.428 65.029,70.141 63.17,71.998 63.17,64.572 "
   id="polygon3953"
   transform="rotate(90,17.343611,73.615097)" /><rect
   style="fill:#b68b2d"
   x="116.93049"
   y="-23.50971"
   width="1.312"
   height="1.668"
   id="rect3955"
   transform="rotate(90)" /><rect
   style="fill:#454545"
   x="122.93048"
   y="-26.386709"
   width="3.7130001"
   height="7.428"
   id="rect3957"
   transform="rotate(90)" /><polygon
   style="fill:#454545"
   points="66.659,64.572 66.659,71.998 64.801,70.141 64.801,66.428 "
   id="polygon3959"
   transform="rotate(90,17.343611,73.615097)" /><polygon
   style="fill:#454545"
   points="72.229,66.428 72.229,70.141 70.371,71.998 70.371,64.572 "
   id="polygon3961"
   transform="rotate(90,17.343611,73.615097)" /><rect
   style="fill:#b68b2d"
   x="124.13049"
   y="-23.50971"
   width="1.312"
   height="1.668"
   id="rect3963"
   transform="rotate(90)" /><rect
   style="fill:#454545"
   x="130.12849"
   y="-26.386709"
   width="3.7130001"
   height="7.428"
   id="rect3965"
   transform="rotate(90)" /><polygon
   style="fill:#454545"
   points="73.857,64.572 73.857,71.998 72,70.141 72,66.428 "
   id="polygon3967"
   transform="rotate(90,17.343611,73.615097)" /><polygon
   style="fill:#454545"
   points="79.43,66.428 79.43,70.141 77.568,71.998 77.568,64.572 "
   id="polygon3969"
   transform="rotate(90,17.343611,73.615097)" /><rect
   style="fill:#b68b2d"
   x="131.33049"
   y="-23.50971"
   width="1.312"
   height="1.668"
   id="rect3971"
   transform="rotate(90)" /><rect
   style="fill:#454545"
   x="137.33049"
   y="-26.386709"
   width="3.7130001"
   height="7.428"
   id="rect3973"
   transform="rotate(90)" /><polygon
   style="fill:#454545"
   points="81.059,64.572 81.059,71.998 79.2,70.141 79.2,66.428 "
   id="polygon3975"
   transform="rotate(90,17.343611,73.615097)" /><polygon
   style="fill:#454545"
   points="86.63,66.428 86.63,70.141 84.771,71.998 84.771,64.572 "
   id="polygon3977"
   transform="rotate(90,17.343611,73.615097)" /><rect
   style="fill:#b68b2d"
   x="138.53049"
   y="-23.50971"
   width="1.312"
   height="1.668"
   id="rect3979"
   transform="rotate(90)" /><rect
   style="fill:#454545"
   x="144.53049"
   y="-26.386709"
   width="3.714"
   height="7.428"
   id="rect3981"
   transform="rotate(90)" /><polygon
   style="fill:#454545"
   points="88.259,64.572 88.259,71.998 86.4,70.141 86.4,66.428 "
   id="polygon3983"
   transform="rotate(90,17.343611,73.615097)" /><polygon
   style="fill:#454545"
   points="93.829,66.428 93.829,70.141 91.971,71.998 91.971,64.572 "
   id="polygon3985"
   transform="rotate(90,17.343611,73.615097)" /><rect
   style="fill:#b68b2d"
   x="145.72949"
   y="-23.50971"
   width="1.312"
   height="1.668"
   id="rect3987"
   transform="rotate(90)" /><rect
   style="fill:#454545"
   x="151.72949"
   y="-26.386709"
   width="3.7130001"
   height="7.428"
   id="rect3989"
   transform="rotate(90)" /><polygon
   style="fill:#454545"
   points="95.458,64.572 95.458,71.998 93.602,70.141 93.602,66.428 "
   id="polygon3991"
   transform="rotate(90,17.343611,73.615097)" /><polygon
   style="fill:#454545"
   points="101.029,66.428 101.029,70.141 99.171,71.998 99.171,64.572 "
   id="polygon3993"
   transform="rotate(90,17.343611,73.615097)" /><rect
   style="fill:#b68b2d"
   x="152.93048"
   y="-23.50971"
   width="1.312"
   height="1.668"
   id="rect3995"
   transform="rotate(90)" /><rect
   style="fill:#454545"
   x="158.93048"
   y="-26.386709"
   width="3.7130001"
   height="7.428"
   id="rect3997"
   transform="rotate(90)" /><polygon
   style="fill:#454545"
   points="102.659,64.572 102.659,71.998 100.8,70.141 100.8,66.428 "
   id="polygon3999"
   transform="rotate(90,17.343611,73.615097)" /><polygon
   style="fill:#454545"
   points="108.229,66.428 108.229,70.141 106.37,71.998 106.37,64.572 "
   id="polygon4001"
   transform="rotate(90,17.343611,73.615097)" /><rect
   style="fill:#b68b2d"
   x="160.12849"
   y="-23.50971"
   width="1.312"
   height="1.668"
   id="rect4003"
   transform="rotate(90)" /><rect
   style="fill:#454545"
   x="166.12849"
   y="-26.386709"
   width="3.7130001"
   height="7.428"
   id="rect4005"
   transform="rotate(90)" /><polygon
   style="fill:#454545"
   points="109.857,64.572 109.857,71.998 108.001,70.141 108.001,66.428 "
   id="polygon4007"
   transform="rotate(90,17.343611,73.615097)" /><polygon
   style="fill:#454545"
   points="115.43,66.428 115.43,70.141 113.57,71.998 113.57,64.572 "
   id="polygon4009"
   transform="rotate(90,17.343611,73.615097)" /><rect
   style="fill:#b68b2d"
   x="167.33249"
   y="-23.50971"
   width="1.312"
   height="1.668"
   id="rect4011"
   transform="rotate(90)" /><rect
   style="fill:#454545"
   x="173.33249"
   y="-26.386709"
   width="3.7130001"
   height="7.428"
   id="rect4013"
   transform="rotate(90)" /><polygon
   style="fill:#454545"
   points="117.061,64.572 117.061,71.998 115.2,70.141 115.2,66.428 "
   id="polygon4015"
   transform="rotate(90,17.343611,73.615097)" /><polygon
   style="fill:#454545"
   points="122.63,66.428 122.63,70.141 120.771,71.998 120.771,64.572 "
   id="polygon4017"
   transform="rotate(90,17.343611,73.615097)" /><rect
   style="fill:#b68b2d"
   x="174.53049"
   y="-23.50971"
   width="1.312"
   height="1.668"
   id="rect4019"
   transform="rotate(90)" /><rect
   style="fill:#454545"
   x="72.299484"
   y="-90.959702"
   width="3.7130001"
   height="7.427"
   id="rect4021"
   transform="rotate(90)" /><polygon
   style="fill:#454545"
   points="16.028,-0.001 16.028,7.425 14.17,5.566 14.17,1.854 "
   id="polygon4023"
   transform="rotate(90,17.343611,73.615097)" /><polygon
   style="fill:#454545"
   points="21.599,1.854 21.599,5.566 19.74,7.425 19.74,-0.001 "
   id="polygon4025"
   transform="rotate(90,17.343611,73.615097)" /><rect
   style="fill:#b68b2d"
   x="73.499489"
   y="-88.083702"
   width="1.312"
   height="1.668"
   id="rect4027"
   transform="rotate(90)" /><rect
   style="fill:#454545"
   x="79.499489"
   y="-90.959702"
   width="3.7130001"
   height="7.427"
   id="rect4029"
   transform="rotate(90)" /><polygon
   style="fill:#454545"
   points="23.228,-0.001 23.228,7.425 21.37,5.566 21.37,1.854 "
   id="polygon4031"
   transform="rotate(90,17.343611,73.615097)" /><polygon
   style="fill:#454545"
   points="28.799,1.854 28.799,5.566 26.94,7.425 26.94,-0.001 "
   id="polygon4033"
   transform="rotate(90,17.343611,73.615097)" /><rect
   style="fill:#b68b2d"
   x="80.699486"
   y="-88.083702"
   width="1.312"
   height="1.668"
   id="rect4035"
   transform="rotate(90)" /><rect
   style="fill:#454545"
   x="86.699486"
   y="-90.959702"
   width="3.7130001"
   height="7.427"
   id="rect4037"
   transform="rotate(90)" /><polygon
   style="fill:#454545"
   points="30.428,-0.001 30.428,7.425 28.57,5.566 28.57,1.854 "
   id="polygon4039"
   transform="rotate(90,17.343611,73.615097)" /><polygon
   style="fill:#454545"
   points="35.999,1.854 35.999,5.566 34.14,7.425 34.14,-0.001 "
   id="polygon4041"
   transform="rotate(90,17.343611,73.615097)" /><rect
   style="fill:#b68b2d"
   x="87.89949"
   y="-88.083702"
   width="1.312"
   height="1.668"
   id="rect4043"
   transform="rotate(90)" /><rect
   style="fill:#454545"
   x="93.899483"
   y="-90.959702"
   width="3.7130001"
   height="7.427"
   id="rect4045"
   transform="rotate(90)" /><polygon
   style="fill:#454545"
   points="37.628,-0.001 37.628,7.425 35.771,5.566 35.771,1.854 "
   id="polygon4047"
   transform="rotate(90,17.343611,73.615097)" /><polygon
   style="fill:#454545"
   points="43.199,1.854 43.199,5.566 41.34,7.425 41.34,-0.001 "
   id="polygon4049"
   transform="rotate(90,17.343611,73.615097)" /><rect
   style="fill:#b68b2d"
   x="95.100487"
   y="-88.083702"
   width="1.312"
   height="1.668"
   id="rect4051"
   transform="rotate(90)" /><rect
   style="fill:#454545"
   x="101.09949"
   y="-90.959702"
   width="3.7130001"
   height="7.427"
   id="rect4053"
   transform="rotate(90)" /><polygon
   style="fill:#454545"
   points="44.828,-0.001 44.828,7.425 42.97,5.566 42.97,1.854 "
   id="polygon4055"
   transform="rotate(90,17.343611,73.615097)" /><polygon
   style="fill:#454545"
   points="50.399,1.854 50.399,5.566 48.54,7.425 48.54,-0.001 "
   id="polygon4057"
   transform="rotate(90,17.343611,73.615097)" /><rect
   style="fill:#b68b2d"
   x="102.29948"
   y="-88.083702"
   width="1.312"
   height="1.668"
   id="rect4059"
   transform="rotate(90)" /><rect
   style="fill:#454545"
   x="108.29948"
   y="-90.959702"
   width="3.7130001"
   height="7.427"
   id="rect4061"
   transform="rotate(90)" /><polygon
   style="fill:#454545"
   points="52.028,-0.001 52.028,7.425 50.17,5.566 50.17,1.854 "
   id="polygon4063"
   transform="rotate(90,17.343611,73.615097)" /><polygon
   style="fill:#454545"
   points="57.599,1.854 57.599,5.566 55.74,7.425 55.74,-0.001 "
   id="polygon4065"
   transform="rotate(90,17.343611,73.615097)" /><rect
   style="fill:#b68b2d"
   x="109.50049"
   y="-88.083702"
   width="1.312"
   height="1.668"
   id="rect4067"
   transform="rotate(90)" /><rect
   style="fill:#454545"
   x="115.50049"
   y="-90.959702"
   width="3.7119999"
   height="7.427"
   id="rect4069"
   transform="rotate(90)" /><polygon
   style="fill:#454545"
   points="59.229,-0.001 59.229,7.425 57.371,5.566 57.371,1.854 "
   id="polygon4071"
   transform="rotate(90,17.343611,73.615097)" /><polygon
   style="fill:#454545"
   points="64.799,1.854 64.799,5.566 62.939,7.425 62.939,-0.001 "
   id="polygon4073"
   transform="rotate(90,17.343611,73.615097)" /><rect
   style="fill:#b68b2d"
   x="116.70148"
   y="-88.083702"
   width="1.312"
   height="1.668"
   id="rect4075"
   transform="rotate(90)" /><rect
   style="fill:#454545"
   x="122.70148"
   y="-90.959702"
   width="3.7130001"
   height="7.427"
   id="rect4077"
   transform="rotate(90)" /><polygon
   style="fill:#454545"
   points="66.43,-0.001 66.43,7.425 64.57,5.566 64.57,1.854 "
   id="polygon4079"
   transform="rotate(90,17.343611,73.615097)" /><polygon
   style="fill:#454545"
   points="71.999,1.854 71.999,5.566 70.141,7.425 70.141,-0.001 "
   id="polygon4081"
   transform="rotate(90,17.343611,73.615097)" /><rect
   style="fill:#b68b2d"
   x="123.90049"
   y="-88.083702"
   width="1.312"
   height="1.668"
   id="rect4083"
   transform="rotate(90)" /><rect
   style="fill:#454545"
   x="129.89949"
   y="-90.959702"
   width="3.7130001"
   height="7.427"
   id="rect4085"
   transform="rotate(90)" /><polygon
   style="fill:#454545"
   points="73.628,-0.001 73.628,7.425 71.771,5.566 71.771,1.854 "
   id="polygon4087"
   transform="rotate(90,17.343611,73.615097)" /><polygon
   style="fill:#454545"
   points="79.197,1.854 79.197,5.566 77.34,7.425 77.34,-0.001 "
   id="polygon4089"
   transform="rotate(90,17.343611,73.615097)" /><rect
   style="fill:#b68b2d"
   x="131.09949"
   y="-88.083702"
   width="1.312"
   height="1.668"
   id="rect4091"
   transform="rotate(90)" /><rect
   style="fill:#454545"
   x="137.09949"
   y="-90.959702"
   width="3.7130001"
   height="7.427"
   id="rect4093"
   transform="rotate(90)" /><polygon
   style="fill:#454545"
   points="80.828,-0.001 80.828,7.425 78.971,5.566 78.971,1.854 "
   id="polygon4095"
   transform="rotate(90,17.343611,73.615097)" /><polygon
   style="fill:#454545"
   points="86.398,1.854 86.398,5.566 84.54,7.425 84.54,-0.001 "
   id="polygon4097"
   transform="rotate(90,17.343611,73.615097)" /><rect
   style="fill:#b68b2d"
   x="138.29849"
   y="-88.083702"
   width="1.312"
   height="1.668"
   id="rect4099"
   transform="rotate(90)" /><rect
   style="fill:#454545"
   x="144.29849"
   y="-90.959702"
   width="3.714"
   height="7.427"
   id="rect4101"
   transform="rotate(90)" /><polygon
   style="fill:#454545"
   points="88.027,-0.001 88.027,7.425 86.171,5.566 86.171,1.854 "
   id="polygon4103"
   transform="rotate(90,17.343611,73.615097)" /><polygon
   style="fill:#454545"
   points="93.6,1.854 93.6,5.566 91.74,7.425 91.74,-0.001 "
   id="polygon4105"
   transform="rotate(90,17.343611,73.615097)" /><rect
   style="fill:#b68b2d"
   x="145.50049"
   y="-88.083702"
   width="1.312"
   height="1.668"
   id="rect4107"
   transform="rotate(90)" /><rect
   style="fill:#454545"
   x="151.50049"
   y="-90.959702"
   width="3.7130001"
   height="7.427"
   id="rect4109"
   transform="rotate(90)" /><polygon
   style="fill:#454545"
   points="95.229,-0.001 95.229,7.425 93.37,5.566 93.37,1.854 "
   id="polygon4111"
   transform="rotate(90,17.343611,73.615097)" /><polygon
   style="fill:#454545"
   points="100.8,1.854 100.8,5.566 98.939,7.425 98.939,-0.001 "
   id="polygon4113"
   transform="rotate(90,17.343611,73.615097)" /><rect
   style="fill:#b68b2d"
   x="152.70149"
   y="-88.083702"
   width="1.312"
   height="1.668"
   id="rect4115"
   transform="rotate(90)" /><rect
   style="fill:#454545"
   x="158.70149"
   y="-90.959702"
   width="3.7130001"
   height="7.427"
   id="rect4117"
   transform="rotate(90)" /><polygon
   style="fill:#454545"
   points="102.43,-0.001 102.43,7.425 100.57,5.566 100.57,1.854 "
   id="polygon4119"
   transform="rotate(90,17.343611,73.615097)" /><polygon
   style="fill:#454545"
   points="107.999,1.854 107.999,5.566 106.141,7.425 106.141,-0.001 "
   id="polygon4121"
   transform="rotate(90,17.343611,73.615097)" /><rect
   style="fill:#b68b2d"
   x="159.89949"
   y="-88.083702"
   width="1.312"
   height="1.668"
   id="rect4123"
   transform="rotate(90)" /><rect
   style="fill:#454545"
   x="165.89949"
   y="-90.959702"
   width="3.7130001"
   height="7.427"
   id="rect4125"
   transform="rotate(90)" /><polygon
   style="fill:#454545"
   points="109.628,-0.001 109.628,7.425 107.771,5.566 107.771,1.854 "
   id="polygon4127"
   transform="rotate(90,17.343611,73.615097)" /><polygon
   style="fill:#454545"
   points="115.199,1.854 115.199,5.566 113.341,7.425 113.341,-0.001 "
   id="polygon4129"
   transform="rotate(90,17.343611,73.615097)" /><rect
   style="fill:#b68b2d"
   x="167.10049"
   y="-88.083702"
   width="1.312"
   height="1.668"
   id="rect4131"
   transform="rotate(90)" /><rect
   style="fill:#454545"
   x="173.10049"
   y="-90.959702"
   width="3.7130001"
   height="7.427"
   id="rect4133"
   transform="rotate(90)" /><polygon
   style="fill:#454545"
   points="116.829,-0.001 116.829,7.425 114.971,5.566 114.971,1.854 "
   id="polygon4135"
   transform="rotate(90,17.343611,73.615097)" /><polygon
   style="fill:#454545"
   points="122.398,1.854 122.398,5.566 120.54,7.425 120.54,-0.001 "
   id="polygon4137"
   transform="rotate(90,17.343611,73.615097)" /><rect
   style="fill:#b68b2d"
   x="174.29849"
   y="-88.083702"
   width="1.312"
   height="1.668"
   id="rect4139"
   transform="rotate(90)" /><text
   font-size="2.5"
   id="text4141"
   x="72.321938"
   y="-80.191101"
   style="font-size:2.5px;line-height:0%;font-family:OCRA;fill:#ffffff"
   transform="rotate(90)">D0</text>
<text
   font-size="2.5"
   id="text4143"
   x="80.90683"
   y="-78.694321"
   style="font-size:2.54636264px;line-height:0%;font-family:OCRA;fill:#ffffff"
   transform="matrix(0,0.98179265,-1.018545,0,0,0)">D1</text>
<text
   font-size="2.5"
   id="text4145"
   x="87.574303"
   y="-79.376122"
   style="font-size:2.52449059px;line-height:0%;font-family:OCRA;fill:#ffffff"
   transform="matrix(0,0.99029883,-1.0097962,0,0,0)">D2</text>
<text
   font-size="2.5"
   id="text4147"
   x="93.863525"
   y="-80.219284"
   style="font-size:2.49913454px;line-height:0%;font-family:OCRA;fill:#ffffff"
   transform="matrix(0,1.0003463,-0.99965382,0,0,0)">D3</text>
<text
   font-size="2.5"
   id="text4149"
   x="103.11431"
   y="-78.562531"
   style="font-size:2.55063438px;line-height:0%;font-family:OCRA;fill:#ffffff"
   transform="matrix(0,0.98014836,-1.0202537,0,0,0)">D4</text>
<text
   font-size="2.5"
   id="text4151"
   x="107.51413"
   y="-80.191544"
   style="font-size:2.5px;line-height:0%;font-family:OCRA;fill:#ffffff"
   transform="rotate(90)">3V3</text>
<text
   font-size="2.5"
   id="text4153"
   x="114.74882"
   y="-80.061684"
   style="font-size:2.50398254px;line-height:0%;font-family:OCRA;fill:#ffffff"
   transform="matrix(0,0.99840953,-1.001593,0,0,0)">GND</text>
<text
   font-size="2.5"
   id="text4155"
   x="123.84283"
   y="-79.413902"
   style="font-size:2.52449059px;line-height:0%;font-family:OCRA;fill:#ffffff"
   transform="matrix(0,0.99029883,-1.0097962,0,0,0)">D5</text>
<text
   font-size="2.5"
   id="text4157"
   x="129.95311"
   y="-80.143311"
   style="font-size:2.50155497px;line-height:0%;font-family:OCRA;fill:#ffffff"
   transform="matrix(0,0.99937838,-1.000622,0,0,0)">D6</text>
<text
   font-size="2.5"
   id="text4159"
   x="139.94138"
   y="-78.562531"
   style="font-size:2.55063438px;line-height:0%;font-family:OCRA;fill:#ffffff"
   transform="matrix(0,0.98014836,-1.0202537,0,0,0)">D7</text>
<text
   font-size="2.5"
   id="text4161"
   x="143.94749"
   y="-80.377815"
   style="font-size:2.49431467px;line-height:0%;font-family:OCRA;fill:#ffffff"
   transform="matrix(0,1.0022793,-0.99772588,0,0,0)">D8</text>
<text
   font-size="2.5"
   id="text4163"
   x="154.33133"
   y="-78.562531"
   style="font-size:2.55063438px;line-height:0%;font-family:OCRA;fill:#ffffff"
   transform="matrix(0,0.98014836,-1.0202537,0,0,0)">RX</text>
<text
   font-size="2.5"
   id="text4165"
   x="161.76999"
   y="-78.562531"
   style="font-size:2.55063438px;line-height:0%;font-family:OCRA;fill:#ffffff"
   transform="matrix(0,0.98014836,-1.0202537,0,0,0)">TX</text>
<text
   font-size="2.5"
   id="text4167"
   x="165.20804"
   y="-80.061684"
   style="font-size:2.50398254px;line-height:0%;font-family:OCRA;fill:#ffffff"
   transform="matrix(0,0.99840953,-1.001593,0,0,0)">GND</text>
<text
   font-size="2.5"
   id="text4169"
   x="172.53415"
   y="-80.219284"
   style="font-size:2.49913454px;line-height:0%;font-family:OCRA;fill:#ffffff"
   transform="matrix(0,1.0003463,-0.99965382,0,0,0)">3V3</text>
<text
   transform="matrix(0,-0.98343415,1.0168449,0,0,0)"
   font-size="2.5"
   id="text4171"
   x="-180.10921"
   y="29.556826"
   style="font-size:2.54211235px;line-height:0%;font-family:OCRA;fill:#ffffff">Vin</text>
<text
   transform="rotate(-90)"
   font-size="2.5"
   id="text4173"
   x="-170.75198"
   y="30.013294"
   style="font-size:2.5px;line-height:0%;font-family:OCRA;fill:#ffffff">GND</text>
<text
   transform="rotate(-90)"
   font-size="2.5"
   id="text4175"
   x="-163.30548"
   y="30.013294"
   style="font-size:2.5px;line-height:0%;font-family:OCRA;fill:#ffffff">RST</text>
<text
   transform="matrix(0,-0.98014836,1.0202537,0,0,0)"
   font-size="2.5"
   id="text4177"
   x="-158.51793"
   y="29.458071"
   style="font-size:2.55063438px;line-height:0%;font-family:OCRA;fill:#ffffff">EN</text>
<text
   transform="rotate(-90)"
   font-size="2.5"
   id="text4179"
   x="-149.30669"
   y="30.018177"
   style="font-size:2.5px;line-height:0%;font-family:OCRA;fill:#ffffff">3V3</text>
<text
   transform="rotate(-90)"
   font-size="2.5"
   id="text4181"
   x="-142.15819"
   y="30.013294"
   style="font-size:2.5px;line-height:0%;font-family:OCRA;fill:#ffffff">GND</text>
<text
   transform="rotate(-90)"
   font-size="2.5"
   id="text4183"
   style="font-size:2.5px;line-height:0%;font-family:OCRA;fill:#ffffff"
   x="-133.69853"
   y="30.013294">SK</text>
<text
   transform="rotate(-90)"
   font-size="2.5"
   id="text4185"
   style="font-size:2.5px;line-height:0%;font-family:OCRA;fill:#ffffff"
   x="-126.25202"
   y="30.016956">S0</text>
<text
   transform="matrix(0,-0.99776311,1.0022419,0,0,0)"
   font-size="2.5"
   id="text4187"
   style="font-size:2.50560498px;line-height:0%;font-family:OCRA;fill:#ffffff"
   x="-119.36873"
   y="29.954447">SC</text>
<text
   transform="matrix(0,-0.99776311,1.0022419,0,0,0)"
   font-size="2.5"
   id="text4189"
   style="font-size:2.50560498px;line-height:0%;font-family:OCRA;fill:#ffffff"
   x="-112.14447"
   y="29.954447">S1</text>
<text
   transform="matrix(0,-0.9990555,1.0009454,0,0,0)"
   font-size="2.5"
   id="text4191"
   style="font-size:2.50236344px;line-height:0%;font-family:OCRA;fill:#ffffff"
   x="-104.66526"
   y="29.99333">S2</text>
<text
   transform="rotate(-90)"
   font-size="2.5"
   id="text4193"
   style="font-size:2.5px;line-height:0%;font-family:OCRA;fill:#ffffff"
   x="-97.89473"
   y="30.018177">S3</text>
<text
   transform="matrix(0,-0.99029883,1.0097962,0,0,0)"
   font-size="2.5"
   id="text4195"
   style="font-size:2.52449059px;line-height:0%;font-family:OCRA;fill:#ffffff"
   x="-91.394547"
   y="29.72493">VU</text>
<text
   transform="matrix(0,-0.99840953,1.001593,0,0,0)"
   font-size="2.5"
   id="text4197"
   style="font-size:2.50398254px;line-height:0%;font-family:OCRA;fill:#ffffff"
   x="-84.745956"
   y="29.971449">GND</text>
<text
   transform="rotate(-90)"
   font-size="2.5"
   id="text4199"
   x="-75.782646"
   y="30.017311"
   style="font-size:2.5px;line-height:0%;font-family:OCRA;fill:#ffffff">A0</text>
<rect
   style="fill:#bec0c2"
   x="180.4045"
   y="-65.859703"
   width="17.333"
   height="21.833"
   id="rect4201"
   transform="rotate(90)" /><rect
   style="fill:#bec0c2"
   x="180.23349"
   y="-77.359703"
   width="7.8330002"
   height="8"
   id="rect4203"
   transform="rotate(90)" /><circle
   style="fill:#231f20"
   cx="184.1545"
   cy="-73.275703"
   r="2.75"
   id="circle4205"
   transform="rotate(90)" /><rect
   style="fill:#bec0c2"
   x="180.23349"
   y="-40.560711"
   width="7.8330002"
   height="8"
   id="rect4207"
   transform="rotate(90)" /><circle
   style="fill:#231f20"
   cx="184.1545"
   cy="-36.476711"
   r="2.75"
   id="circle4209"
   transform="rotate(90)" /><text
   font-size="2.5"
   id="text4211"
   style="font-size:2.5px;line-height:0%;font-family:OCRA;fill:#ffffff"
   x="69.195007"
   y="179.0703">FLASH</text>
<text
   font-size="2.5"
   id="text4213"
   style="font-size:2.5px;line-height:0%;font-family:OCRA;fill:#ffffff"
   x="34.361008"
   y="179.06839">RST</text>
<rect
   style="fill:#5f5758"
   x="77.404488"
   y="-74.526703"
   width="43.5"
   height="39.033001"
   id="rect4215"
   transform="rotate(90)" /><rect
   style="fill:#b68b2d"
   x="58.633484"
   y="-72.191704"
   width="1.312"
   height="11.834"
   id="rect4217"
   transform="rotate(90)" /><rect
   style="fill:#b68b2d"
   x="58.739483"
   y="-61.524708"
   width="11.099"
   height="1.168"
   id="rect4219"
   transform="rotate(90)" /><rect
   style="fill:#b68b2d"
   x="58.739483"
   y="-57.720707"
   width="11.099"
   height="1.168"
   id="rect4221"
   transform="rotate(90)" /><rect
   style="fill:#b68b2d"
   x="58.739483"
   y="-53.915707"
   width="11.099"
   height="1.168"
   id="rect4223"
   transform="rotate(90)" /><rect
   style="fill:#b68b2d"
   x="58.739483"
   y="-50.110706"
   width="11.099"
   height="1.168"
   id="rect4225"
   transform="rotate(90)" /><rect
   style="fill:#b68b2d"
   x="58.739483"
   y="-46.30471"
   width="11.099"
   height="1.168"
   id="rect4227"
   transform="rotate(90)" /><rect
   style="fill:#b68b2d"
   x="58.739483"
   y="-42.501709"
   width="11.099"
   height="1.168"
   id="rect4229"
   transform="rotate(90)" /><rect
   style="fill:#b68b2d"
   x="68.526489"
   y="-61.524708"
   width="1.312"
   height="4.973"
   id="rect4231"
   transform="rotate(90)" /><rect
   style="fill:#b68b2d"
   x="58.739483"
   y="-56.915707"
   width="1.312"
   height="4.1680002"
   id="rect4233"
   transform="rotate(90)" /><rect
   style="fill:#b68b2d"
   x="68.526489"
   y="-53.915707"
   width="1.312"
   height="4.973"
   id="rect4235"
   transform="rotate(90)" /><rect
   style="fill:#b68b2d"
   x="58.739483"
   y="-50.110706"
   width="1.312"
   height="4.9759998"
   id="rect4237"
   transform="rotate(90)" /><rect
   style="fill:#b68b2d"
   x="68.526489"
   y="-46.30471"
   width="1.312"
   height="4.973"
   id="rect4239"
   transform="rotate(90)" /><rect
   style="fill:#b68b2d"
   x="58.870483"
   y="-42.54871"
   width="1.312"
   height="5.9920001"
   id="rect4241"
   transform="rotate(90)" /><rect
   style="fill:#b68b2d"
   x="59.289482"
   y="-37.724709"
   width="18.582001"
   height="1.168"
   id="rect4243"
   transform="rotate(90)" /><rect
   style="fill:#b68b2d"
   x="72.766487"
   y="-60.940708"
   width="1.312"
   height="24.312"
   id="rect4245"
   transform="rotate(90)" /><rect
   style="fill:#524b4c"
   x="164.03749"
   y="-65.101707"
   width="9.2089996"
   height="8.2639999"
   id="rect4247"
   transform="rotate(90)" /><rect
   style="fill:#4d4648"
   x="126.72449"
   y="-67.185707"
   width="15.945"
   height="6.217"
   id="rect4249"
   transform="rotate(90)" /><text
   xml:space="preserve"
   style="font-style:normal;font-weight:normal;line-height:0%;font-family:sans-serif;letter-spacing:0px;word-spacing:0px;fill:#000000;fill-opacity:1;stroke:none;stroke-width:1px;stroke-linecap:butt;stroke-linejoin:miter;stroke-opacity:1"
   x="127.67547"
   y="-44.707054"
   id="text4265"
   transform="rotate(90)"><tspan
     sodipodi:role="line"
     id="tspan4267"
     x="127.67547"
     y="-44.707054"
     style="font-style:normal;font-variant:normal;font-weight:normal;font-stretch:normal;font-size:3.75px;line-height:1.25;font-family:sans-serif;-inkscape-font-specification:sans-serif;fill:#ffffff">Lolin</tspan></text>
<text
   transform="rotate(90)"
   id="text4251"
   style="line-height:0%"
   x="127.34179"
   y="-49.584705"><tspan
     x="127.34179"
     y="-49.584705"
     font-size="7"
     id="tspan4253"
     style="font-size:7px;font-family:OCRA;fill:#ffffff">NodeMcu v3</tspan></text>
<text
   xml:space="preserve"
   style="font-style:normal;font-weight:normal;font-size:5.33333349px;line-height:125%;font-family:Sans;letter-spacing:0px;word-spacing:0px;fill:#000000;fill-opacity:1;stroke:none;stroke-width:1px;stroke-linecap:butt;stroke-linejoin:miter;stroke-opacity:1"
   x="135.13095"
   y="97.937332"
   id="text4881"><tspan
     sodipodi:role="line"
     id="tspan4879"
     x="135.13095"
     y="97.937332">SDA</tspan></text>
<text
   xml:space="preserve"
   style="font-style:normal;font-weight:normal;font-size:5.33333349px;line-height:125%;font-family:Sans;letter-spacing:0px;word-spacing:0px;fill:#000000;fill-opacity:1;stroke:none;stroke-width:1px;stroke-linecap:butt;stroke-linejoin:miter;stroke-opacity:1"
   x="135.13095"
   y="105.46258"
   id="text4881-7"><tspan
     sodipodi:role="line"
     id="tspan4879-4"
     x="135.13095"
     y="105.46258">SCL</tspan></text>
<text
   xml:space="preserve"
   style="font-style:normal;font-weight:normal;font-size:5.33333349px;line-height:125%;font-family:Sans;letter-spacing:0px;word-spacing:0px;fill:#000000;fill-opacity:1;stroke:none;stroke-width:1px;stroke-linecap:butt;stroke-linejoin:miter;stroke-opacity:1"
   x="135.13095"
   y="112.98782"
   id="text4881-8"><tspan
     sodipodi:role="line"
     id="tspan4879-8"
     x="135.13095"
     y="112.98782">GND</tspan></text>
<text
   xml:space="preserve"
   style="font-style:normal;font-weight:normal;font-size:5.33333349px;line-height:125%;font-family:Sans;letter-spacing:0px;word-spacing:0px;fill:#000000;fill-opacity:1;stroke:none;stroke-width:1px;stroke-linecap:butt;stroke-linejoin:miter;stroke-opacity:1"
   x="135.13095"
   y="120.44275"
   id="text4881-6"><tspan
     sodipodi:role="line"
     id="tspan4879-89"
     x="135.13095"
     y="120.44275">VIN</tspan></text>
<text
   xml:space="preserve"
   style="font-style:normal;font-weight:normal;font-size:8px;line-height:125%;font-family:Sans;letter-spacing:0px;word-spacing:0px;fill:#000000;fill-opacity:1;stroke:none;stroke-width:1px;stroke-linecap:butt;stroke-linejoin:miter;stroke-opacity:1"
   x="124.63648"
   y="129.3335"
   id="text5034"><tspan
     sodipodi:role="line"
     id="tspan5032"
     x="124.63648"
     y="129.3335"
     style="font-size:8px">BME280</tspan></text>
<rect
   style="fill:#454545"
   x="94.310097"
   y="-133.32822"
   width="3.7130001"
   height="7.427"
   id="rect4021-39-5"
   transform="rotate(90)" /><polygon
   style="fill:#454545"
   points="16.028,7.425 14.17,5.566 14.17,1.854 16.028,-0.001 "
   id="polygon4023-0-9"
   transform="rotate(90,27.522553,105.80465)" /><polygon
   style="fill:#454545"
   points="21.599,5.566 19.74,7.425 19.74,-0.001 21.599,1.854 "
   id="polygon4025-8-6"
   transform="rotate(90,27.522553,105.80465)" /><rect
   style="fill:#b68b2d"
   x="95.510101"
   y="-130.45221"
   width="1.312"
   height="1.668"
   id="rect4027-8-2"
   transform="rotate(90)" /><rect
   style="fill:#454545"
   x="101.5101"
   y="-133.32822"
   width="3.7130001"
   height="7.427"
   id="rect4029-5-1"
   transform="rotate(90)" /><polygon
   style="fill:#454545"
   points="23.228,7.425 21.37,5.566 21.37,1.854 23.228,-0.001 "
   id="polygon4031-0-7"
   transform="rotate(90,27.522553,105.80465)" /><polygon
   style="fill:#454545"
   points="28.799,5.566 26.94,7.425 26.94,-0.001 28.799,1.854 "
   id="polygon4033-9-8"
   transform="rotate(90,27.522553,105.80465)" /><rect
   style="fill:#b68b2d"
   x="102.7101"
   y="-130.45221"
   width="1.312"
   height="1.668"
   id="rect4035-6-5"
   transform="rotate(90)" /><rect
   style="fill:#454545"
   x="108.7101"
   y="-133.32822"
   width="3.7130001"
   height="7.427"
   id="rect4037-3-7"
   transform="rotate(90)" /><polygon
   style="fill:#454545"
   points="30.428,7.425 28.57,5.566 28.57,1.854 30.428,-0.001 "
   id="polygon4039-8-4"
   transform="rotate(90,27.522553,105.80465)" /><polygon
   style="fill:#454545"
   points="35.999,5.566 34.14,7.425 34.14,-0.001 35.999,1.854 "
   id="polygon4041-5-1"
   transform="rotate(90,27.522553,105.80465)" /><rect
   style="fill:#b68b2d"
   x="109.9101"
   y="-130.45221"
   width="1.312"
   height="1.668"
   id="rect4043-6-8"
   transform="rotate(90)" /><rect
   style="fill:#454545"
   x="115.9101"
   y="-133.32822"
   width="3.7130001"
   height="7.427"
   id="rect4045-1-5"
   transform="rotate(90)" /><polygon
   style="fill:#454545"
   points="37.628,7.425 35.771,5.566 35.771,1.854 37.628,-0.001 "
   id="polygon4047-1-9"
   transform="rotate(90,27.522553,105.80465)" /><polygon
   style="fill:#454545"
   points="43.199,5.566 41.34,7.425 41.34,-0.001 43.199,1.854 "
   id="polygon4049-5-7"
   transform="rotate(90,27.522553,105.80465)" /><rect
   style="fill:#b68b2d"
   x="117.1111"
   y="-130.45221"
   width="1.312"
   height="1.668"
   id="rect4051-9-5"
   transform="rotate(90)" /><path
   style="fill:none;fill-rule:evenodd;stroke:#000000;stroke-width:1px;stroke-linecap:butt;stroke-linejoin:miter;stroke-opacity:1"
   d="m 86.415707,95.100484 44.036503,0.409612"
   id="path5705"
   inkscape:connector-type="polyline"
   inkscape:connector-curvature="0" /><path
   style="fill:none;fill-rule:evenodd;stroke:#000000;stroke-width:1px;stroke-linecap:butt;stroke-linejoin:miter;stroke-opacity:1"
   d="m 86.415707,102.29948 44.036503,0.41061"
   id="path5707"
   inkscape:connector-type="polyline"
   inkscape:connector-curvature="0" /><rect
   style="fill:#b68b2d"
   x="17.506516"
   y="-130.54143"
   width="1.312"
   height="1.668"
   id="rect4027-8"
   transform="rotate(90)" /><rect
   style="fill:#b68b2d"
   x="24.706511"
   y="-130.54143"
   width="1.312"
   height="1.668"
   id="rect4035-6"
   transform="rotate(90)" /><rect
   style="fill:#b68b2d"
   x="31.906507"
   y="-130.54143"
   width="1.312"
   height="1.668"
   id="rect4043-6"
   transform="rotate(90)" /><rect
   style="fill:#b68b2d"
   x="39.107513"
   y="-130.54143"
   width="1.312"
   height="1.668"
   id="rect4051-9"
   transform="rotate(90)" /><rect
   style="fill:#b68b2d"
   x="46.306515"
   y="-130.54143"
   width="1.312"
   height="1.668"
   id="rect4059-1"
   transform="rotate(90)" /><rect
   style="fill:#b68b2d"
   x="53.507511"
   y="-130.54143"
   width="1.312"
   height="1.668"
   id="rect4067-4"
   transform="rotate(90)" /><rect
   style="fill:#b68b2d"
   x="60.708511"
   y="-130.54143"
   width="1.312"
   height="1.668"
   id="rect4075-7"
   transform="rotate(90)" /><text
   xml:space="preserve"
   style="font-style:normal;font-weight:normal;font-size:5.33333349px;line-height:125%;font-family:Sans;letter-spacing:0px;word-spacing:0px;fill:#000000;fill-opacity:1;stroke:none;stroke-width:1px;stroke-linecap:butt;stroke-linejoin:miter;stroke-opacity:1"
   x="142.57263"
   y="49.378101"
   id="text4881-88"><tspan
     sodipodi:role="line"
     id="tspan4879-897"
     x="142.57263"
     y="49.378101">5V</tspan></text>
<text
   xml:space="preserve"
   style="font-style:normal;font-weight:normal;font-size:5.33333349px;line-height:125%;font-family:Sans;letter-spacing:0px;word-spacing:0px;fill:#000000;fill-opacity:1;stroke:none;stroke-width:1px;stroke-linecap:butt;stroke-linejoin:miter;stroke-opacity:1"
   x="142.57263"
   y="19.647253"
   id="text4881-88-7"><tspan
     sodipodi:role="line"
     id="tspan4879-897-6"
     x="142.57263"
     y="19.647253">TXD</tspan></text>
<text
   xml:space="preserve"
   style="font-style:normal;font-weight:normal;font-size:5.33333349px;line-height:125%;font-family:Sans;letter-spacing:0px;word-spacing:0px;fill:#000000;fill-opacity:1;stroke:none;stroke-width:1px;stroke-linecap:butt;stroke-linejoin:miter;stroke-opacity:1"
   x="142.57263"
   y="27.079962"
   id="text4881-88-4"><tspan
     sodipodi:role="line"
     id="tspan4879-897-3"
     x="142.57263"
     y="27.079962">RXD</tspan></text>
<text
   xml:space="preserve"
   style="font-style:normal;font-weight:normal;font-size:5.33333349px;line-height:125%;font-family:Sans;letter-spacing:0px;word-spacing:0px;fill:#000000;fill-opacity:1;stroke:none;stroke-width:1px;stroke-linecap:butt;stroke-linejoin:miter;stroke-opacity:1"
   x="142.57263"
   y="34.582985"
   id="text4881-88-0"><tspan
     sodipodi:role="line"
     id="tspan4879-897-30"
     x="142.57263"
     y="34.582985">GND</tspan></text>
<text
   xml:space="preserve"
   style="font-style:normal;font-weight:normal;font-size:5.33333349px;line-height:125%;font-family:Sans;letter-spacing:0px;word-spacing:0px;fill:#000000;fill-opacity:1;stroke:none;stroke-width:1px;stroke-linecap:butt;stroke-linejoin:miter;stroke-opacity:1"
   x="142.57263"
   y="42.015709"
   id="text4881-88-9"><tspan
     sodipodi:role="line"
     id="tspan4879-897-2"
     x="142.57263"
     y="42.015709">2,5um</tspan></text>
<text
   xml:space="preserve"
   style="font-style:normal;font-weight:normal;font-size:5.33333349px;line-height:125%;font-family:Sans;letter-spacing:0px;word-spacing:0px;fill:#000000;fill-opacity:1;stroke:none;stroke-width:1px;stroke-linecap:butt;stroke-linejoin:miter;stroke-opacity:1"
   x="142.57263"
   y="56.81081"
   id="text4881-88-5"><tspan
     sodipodi:role="line"
     id="tspan4879-897-4"
     x="142.57263"
     y="56.81081">1um</tspan></text>
<text
   xml:space="preserve"
   style="font-style:normal;font-weight:normal;font-size:5.33333349px;line-height:125%;font-family:Sans;letter-spacing:0px;word-spacing:0px;fill:#000000;fill-opacity:1;stroke:none;stroke-width:1px;stroke-linecap:butt;stroke-linejoin:miter;stroke-opacity:1"
   x="142.57263"
   y="64.313843"
   id="text4881-88-05"><tspan
     sodipodi:role="line"
     id="tspan4879-897-9"
     x="142.57263"
     y="64.313843">NC</tspan></text>
<rect
   style="opacity:1;fill:none;fill-opacity:1;fill-rule:evenodd;stroke:#000000;stroke-width:0.98932189;stroke-linecap:square;stroke-linejoin:miter;stroke-miterlimit:2.6500001;stroke-dasharray:none;stroke-dashoffset:0;stroke-opacity:1"
   id="rect6666"
   width="11.586702"
   height="51.694447"
   x="124.9553"
   y="14.226439" /><text
   xml:space="preserve"
   style="font-style:normal;font-weight:normal;font-size:8px;line-height:125%;font-family:Sans;letter-spacing:0px;word-spacing:0px;fill:#000000;fill-opacity:1;stroke:none;stroke-width:1px;stroke-linecap:butt;stroke-linejoin:miter;stroke-opacity:1"
   x="123.46481"
   y="76.049652"
   id="text6694"><tspan
     sodipodi:role="line"
     id="tspan6692"
     x="123.46481"
     y="76.049652">SDS011</tspan></text>
<path
   style="fill:none;fill-rule:evenodd;stroke:#000000;stroke-width:1px;stroke-linecap:butt;stroke-linejoin:miter;stroke-opacity:1"
   d="m 21.841712,80.929486 c -4.873391,0 -9.748783,0 -14.623174,0 0,0 0,-48.503652 0,-48.503652 41.107631,-0.173109 82.216263,-0.346222 123.322892,-0.519326"
   id="path6727"
   inkscape:connector-curvature="0"
   inkscape:path-effect="#path-effect6729"
   inkscape:original-d="m 21.841712,80.929486 c -4.873391,-10e-4 -14.623174,0 -14.623174,0 V 32.425834 c 0,0 82.216259,-0.347217 123.322892,-0.519326"
   sodipodi:nodetypes="cccc" /><path
   style="fill:none;fill-rule:evenodd;stroke:#000000;stroke-width:1px;stroke-linecap:butt;stroke-linejoin:miter;stroke-opacity:1"
   d="m 21.841712,88.129485 c -7.112904,0 -14.227808,0 -21.341712,0 0,0 0,-41.93685 0,-41.93685 43.347143,0.03796 86.695286,0.07592 130.04143,0.113878"
   id="path6731"
   inkscape:connector-curvature="0"
   inkscape:path-effect="#path-effect6733"
   inkscape:original-d="m 21.841712,88.129485 c -7.112904,-0.001 -21.341712,0 -21.341712,0 v -41.93685 c 0,0 86.695287,0.07492 130.04143,0.113878"
   sodipodi:nodetypes="cccc" /><path
   style="fill:none;fill-rule:evenodd;stroke:#000000;stroke-width:1px;stroke-linecap:butt;stroke-linejoin:miter;stroke-opacity:1"
   d="m 86.415707,80.699484 c 2.96444,0 5.926887,0 8.89033,0 0,0 0.1493,-63.203735 0.1493,-63.203735 11.695363,0.0036 23.391733,0.0072 35.086093,0.01076 M 86.415707,87.899485 c 5.35326,0 10.704515,0 16.056773,0 0,0 0.4479,-63.445685 0.4479,-63.445685 9.20702,0.08424 18.41502,0.168483 27.62105,0.252711"
   id="path6735"
   inkscape:connector-curvature="0"
   inkscape:path-effect="#path-effect6737"
   inkscape:original-d="m 86.415707,80.699484 c 2.96444,-0.001 8.89033,0 8.89033,0 l 0.1493,-63.203735 c 0,0 23.391733,0.0062 35.086093,0.01076 M 86.415707,87.899485 c 5.35326,-0.001 16.056773,0 16.056773,0 l 0.4479,-63.445685 c 0,0 18.41503,0.167474 27.62105,0.252711"
   sodipodi:nodetypes="cccccccc" /><path
   style="fill:none;fill-rule:evenodd;stroke:#000000;stroke-width:1px;stroke-linecap:butt;stroke-linejoin:miter;stroke-opacity:1"
   d="m 86.415707,109.50048 c 2.76538,0 5.528753,0 8.29313,0 0,0 8.612203,7.1192 8.612203,7.1192 0,0 27.13117,0.49142 27.13117,0.49142"
   id="path6739"
   inkscape:connector-curvature="0"
   inkscape:path-effect="#path-effect6741"
   inkscape:original-d="m 86.415707,109.50048 c 2.76538,-10e-4 8.29313,0 8.29313,0 l 8.612203,7.1192 27.13117,0.49142"
   sodipodi:nodetypes="cccc" /><path
   style="fill:none;fill-rule:evenodd;stroke:#000000;stroke-width:1px;stroke-linecap:butt;stroke-linejoin:miter;stroke-opacity:1"
   d="m 86.415707,116.70149 c 2.945717,-0.0188 5.889407,-0.0375 8.83411,-0.0563 0,0 8.015003,-6.82059 8.015003,-6.82059 0,0 27.18739,0.0855 27.18739,0.0855"
   id="path6739-4"
   inkscape:connector-curvature="0"
   inkscape:path-effect="#path-effect6741-2"
   inkscape:original-d="m 86.415707,116.70149 c 2.94571,-0.0198 8.83411,-0.0563 8.83411,-0.0563 l 8.015003,-6.82059 27.18739,0.0855"
   sodipodi:nodetypes="cccc" /><path
   style="fill:none;fill-rule:evenodd;stroke:#000000;stroke-width:0.80066442px;stroke-linecap:butt;stroke-linejoin:miter;stroke-opacity:1"
   d="m 137.78942,66.18713 c 0,-22.063178 0,-44.124753 0,-66.18713"
   id="path492"
   inkscape:connector-curvature="0"
   inkscape:path-effect="#path-effect494"
   inkscape:original-d="m 137.78942,66.18713 c 8e-4,-22.063178 0,-66.18713 0,-66.18713" /></svg>