<?xml version="1.0" encoding="utf-8"?>
<!-- Generator: Adobe Illustrator 16.0.0, SVG Export Plug-In . SVG Version: 6.00 Build 0)  -->
<!DOCTYPE svg PUBLIC "-//W3C//DTD SVG 1.1//EN" "http://www.w3.org/Graphics/SVG/1.1/DTD/svg11.dtd">
<svg version="1.1" xmlns="http://www.w3.org/2000/svg" xmlns:xlink="http://www.w3.org/1999/xlink" x="0px" y="0px"
	 width="413.859px" height="100px" viewBox="0 0 413.859 100" enable-background="new 0 0 413.859 100" xml:space="preserve">
<g id="Ebene_2">
</g>
<g id="Ebene_1">
	<g>
		<g>
			<g>
				<path fill="#1E1E1C" d="M254.928,15.062c-1.463-0.941-2.545-1.27-3.813-1.27c-2.261,0-3.481,1.412-3.481,4.475v1.549h9.222
					v3.579h-9.222V43.54h-3.957V23.396h-6.684v-3.579h6.684v-1.458c0-5.743,2.775-8.145,7.296-8.145
					c2.166,0,3.623,0.568,4.942,1.367L254.928,15.062z"/>
				<path fill="#1E1E1C" d="M270.04,40.338c4.85,0,7.628-4.094,7.628-8.658c0-4.565-2.778-8.66-7.628-8.66
					c-4.846,0-7.621,4.095-7.621,8.66C262.419,36.244,265.194,40.338,270.04,40.338 M270.04,19.439
					c7.247,0,11.673,5.696,11.673,12.24c0,6.541-4.426,12.235-11.673,12.235c-7.245,0-11.671-5.694-11.671-12.235
					C258.369,25.136,262.795,19.439,270.04,19.439"/>
				<path fill="#1E1E1C" d="M303.071,27.349c-0.328-2.73-1.739-4.329-4.565-4.329c-4.141,0-8.045,3.904-8.045,11.955v8.565h-3.954
					V19.816h3.954v4.378c1.836-2.873,4.797-4.757,8.752-4.757c4.708,0,7.53,2.827,7.815,7.911H303.071z"/>
				<path fill="#1E1E1C" d="M256.196,84.68c-1.507,3.296-4.802,4.805-8.283,4.805c-7.153,0-13.319-5.462-13.319-16.855
					c0-11.387,6.166-16.849,13.603-16.849c6.493,0,10.355,4.187,11.812,10.026l-3.906,1.175c-1.458-4.801-3.765-7.249-7.905-7.249
					c-5.604,0-9.323,3.909-9.323,12.896c0,8.993,3.719,12.898,9.323,12.898c4.517,0,6.964-3.249,7.389-9.087h-7.389v-3.954h11.671
					v16.616h-3.437L256.196,84.68z"/>
				<path fill="#1E1E1C" d="M268.032,74.514h14.071c-0.705-3.769-3.201-5.933-7.057-5.933
					C271.236,68.581,268.834,70.935,268.032,74.514 M286.293,78.09h-18.545c0.237,4.706,3.11,7.811,7.299,7.811
					c3.574,0,6.024-1.74,7.624-4.707l3.151,1.646c-2.586,4.995-6.352,6.646-10.775,6.646c-6.922,0-11.344-5.324-11.344-12.243
					c0-6.683,4.232-12.235,11.344-12.235c7.34,0,11.246,5.222,11.246,11.438V78.09z"/>
				<path fill="#1E1E1C" d="M306.968,72.912c-0.328-2.732-1.74-4.331-4.563-4.331c-4.143,0-8.048,3.905-8.048,11.955v8.566h-3.954
					v-23.72h3.954v4.377c1.835-2.872,4.798-4.754,8.752-4.754c4.71,0,7.532,2.821,7.815,7.906H306.968z"/>
				<path fill="#1E1E1C" d="M339.11,89.103h-3.951V72.254c0-2.588-0.756-3.623-2.592-3.623c-2.256,0-4.188,2.68-4.188,9.317v11.154
					h-3.956V72.254c0-2.588-0.751-3.623-2.587-3.623c-2.259,0-4.188,2.68-4.188,9.317v11.154h-3.955v-23.72h3.955v3.012
					c1.224-1.975,3.109-3.389,5.555-3.389c2.682,0,4.234,1.505,4.894,3.858c1.223-2.26,3.344-3.858,5.836-3.858
					c2.919,0,5.177,1.882,5.177,6.402V89.103z"/>
				<path fill="#1E1E1C" d="M351.438,85.905c3.061,0,7.583-1.883,7.583-7.25v-0.75h-5.181c-4.049,0-6.307,1.689-6.307,4.373
					C347.534,84.537,349.088,85.905,351.438,85.905 M362.972,89.103h-3.202l-0.565-3.34c-1.505,2.166-4.845,3.722-8.375,3.722
					c-3.955,0-7.346-2.357-7.346-7.206c0-5.272,4.235-7.765,10.735-7.765h4.803v-1.04c0-3.671-2.592-4.893-5.463-4.893
					c-2.778,0-4.849,1.741-5.603,4.048l-3.481-0.94c1.082-4.141,4.752-6.683,9.084-6.683c5.553,0,9.413,2.586,9.413,9.131V89.103z"
					/>
				<path fill="#1E1E1C" d="M388.099,89.103h-3.956V73.431c0-3.298-1.553-4.85-4.378-4.85c-3.72,0-6.966,4.048-6.966,10.971v9.551
					h-3.953v-23.72h3.953v4.377c1.693-2.732,4.661-4.754,8.048-4.754c4.942,0,7.252,3.014,7.252,7.578V89.103z"/>
			</g>
			<polygon fill="#1E1E1C" points="409.572,65.383 402.561,82.75 394.606,65.383 390.184,65.383 400.441,87.503 395.831,98.705 
				399.784,98.705 413.859,65.383 			"/>
		</g>
		<g>
			<polygon fill="#FF8282" points="55.843,9.094 55.843,10.385 55.843,92.207 62.688,92.207 64.6,92.207 66.232,92.207 
				66.232,9.094 			"/>
			<g>
				<path fill="#FF645F" d="M97.05,100c0.712,0,1.65-0.642,1.65-1.352V1.297c0-0.712-0.938-1.295-1.65-1.295H64.6
					c-0.714,0-0.964,0.29-0.964,0.648v1.945v6.49c0,0.715,0.25,1.305,0.964,1.305h22.063c0.716,0,1.649,0.578,1.649,1.292v76.579
					c0,0.715-0.934,1.349-1.649,1.349H64.6c-0.714,0-0.964,0.242-0.964,0.6v1.946v6.492c0,0.71,0.25,1.352,0.964,1.352H97.05z"/>
			</g>
			<polygon fill="#8CDBA6" points="111.688,9.094 111.688,10.385 111.688,92.207 120.411,92.207 122.079,92.207 122.079,9.094 			
				"/>
			<g>
				<path fill="#21D68F" d="M120.779,99.942V89.559c14.286,0,24.256-17.758,24.256-39.585c0-21.828-9.97-39.589-24.256-39.589V0
					c19.481,0,34.64,22.419,34.64,49.974C155.419,77.526,140.261,99.942,120.779,99.942"/>
				<path fill="#00ABFA" d="M12.985,68.016v14.32v4.605c0,7.769,4.973,13.059,12.831,13.059h2.208h6.358h7.502
					c0.359,0,0.973-0.642,0.973-1.352v-7.79c0-0.71-0.906-1.248-1.622-1.248h-7.457h-3.806h-2.356c-3.363,0-4.238-1.589-4.238-5.429
					V78.06v-8.494v-7.616c0-7.834-3.187-10.717-7.062-12.135c3.876-1.417,7.062-4.297,7.062-12.125v-5.41V18.552v-3.261
					c0-3.772,0.753-4.898,4.238-4.898h2.933h3.721h7.615c0.359,0,0.973-0.592,0.973-1.307V1.298c0-0.713-0.906-1.296-1.622-1.296
					h-6.237h-5.889h-3.293c-7.858,0-12.831,5.088-12.831,12.688v4.076V33.75c0,0-0.256,3.898-0.444,5.225
					c-0.491,3.512-4.795,6.519-7.458,6.479H1.001C0.288,45.454,0,46.015,0,46.729v7.785c0,0.716,0.288,1.331,1.001,1.331h3.729
					c3.399-0.047,7.695,2.817,8.021,7.093C12.848,64.176,12.985,68.016,12.985,68.016"/>
				<path fill="#BD3B38" d="M64.6,0.002h-3.681h-4.107c-0.713,0-0.969,0.583-0.969,1.297v2.397v5.39v1.307h0.969H64.6h1.636V9.086
					V1.299V0.002H64.6z"/>
				<path fill="#BD3B38" d="M55.843,90.858v3.68v4.11c0,0.71,0.256,1.352,0.969,1.352h2.4H64.6h1.633v-1.352v-7.79V89.61H64.6
					h-7.788h-0.969V90.858z"/>
				<path fill="#00B05C" d="M120.411,0.002h-3.679h-4.109c-0.712,0-0.936,0.583-0.936,1.297v2.397v5.39v1.307h0.936h7.788h1.668
					V9.086V1.299V0.002H120.411z"/>
				<path fill="#00B05C" d="M111.688,90.858v3.68v4.11c0,0.71,0.224,1.352,0.936,1.352h2.397h5.391h1.668v-1.352v-7.79V89.61h-1.668
					h-7.788h-0.936V90.858z"/>
				<path fill="#78CCC7" d="M176.623,68.016v14.32v4.605c0,7.769,4.878,13.059,12.735,13.059h2.209h6.36h7.501
					c0.357,0,1.064-0.642,1.064-1.352v-7.79c0-0.71-1-1.248-1.715-1.248h-7.458h-3.806h-2.356c-3.359,0-4.144-1.429-4.144-5.27
					V82.06V69.565v-7.616c0-2.521-0.74-4.806-1.315-6.104h-17.429c4.786,1.299,6.834,3.015,7.812,7.185
					C176.567,65.104,176.623,68.016,176.623,68.016"/>
				<path fill="#78CCC7" d="M175.886,38.971c-1.005,3.401-3.25,5.187-7.261,6.483h16.354c1.016-2.596,2.035-4.328,2.035-7.766
					v-5.407V18.552v-3.261c0-3.772,0.657-4.898,4.144-4.898h2.933h3.718h7.62c0.357,0,1.064-0.592,1.064-1.307V1.298
					c0-0.713-1-1.298-1.715-1.298h-6.236h-5.887h-3.297c-7.857,0-12.735,5.09-12.735,12.69v4.079v16.98
					C176.623,33.75,176.39,37.275,175.886,38.971"/>
				<path fill="#96DBD6" d="M178.415,50.73c2.628,0.966,5.513,2.518,7.284,5.114h19.079c0.715,0,1.715-0.615,1.715-1.329v-7.787
					c0-0.714-1-1.274-1.715-1.274h-19.799C183.68,48.052,180.591,49.938,178.415,50.73"/>
				<path fill="#40A6A6" d="M164.545,45.454c-0.716,0-0.909,0.561-0.909,1.274v7.789c0,0.712,0.193,1.327,0.909,1.327h3.726h17.429
					c-1.169-2.597-4.077-4.375-6.152-5.185c2.177-0.797,4.133-2.607,5.433-5.206h-16.354H164.545z"/>
			</g>
		</g>
	</g>
</g>
</svg>
